<svg width="24" height="24" viewBox="0 0 24 24" fill="none" xmlns="http://www.w3.org/2000/svg">
  <path fill-rule="evenodd" clip-rule="evenodd"
    d="M17.8996 11.5564V13.3002L17.8998 15C17.8998 15.4971 17.4969 15.9 16.9998 15.9C16.5028 15.9 16.0998 15.4971 16.0998 15V12C16.0998 12 16.0998 11.6719 15.8 11.48C15.5002 11.2881 15 11 15 11L11.5973 9.30528C11.1527 9.08299 10.9725 8.54238 11.1948 8.0978C11.4171 7.65322 11.9577 7.47302 12.4023 7.69531L16.9601 9.9742C16.9601 9.9742 17.3002 10.1125 17.6 10.4C17.8998 10.6875 17.8998 11 17.8998 11L17.8996 11.5564ZM17.8996 11.5564L22.4021 9.30515C22.707 9.15269 22.8996 8.84106 22.8996 8.50016C22.8996 8.15927 22.707 7.84763 22.4021 7.69518L12.7599 2.87406L12.7333 2.86063C12.6385 2.81238 12.4588 2.7209 12.2578 2.68319C12.0872 2.65118 11.9121 2.65118 11.7415 2.68319C11.5404 2.7209 11.3607 2.81238 11.2659 2.86063L11.2393 2.87406L1.59712 7.69518C1.29221 7.84763 1.09961 8.15927 1.09961 8.50016C1.09961 8.84106 1.29221 9.15269 1.59712 9.30515L11.2393 14.1263L11.2659 14.1397C11.3607 14.1879 11.5404 14.2794 11.7415 14.3171C11.9121 14.3491 12.0872 14.3491 12.2578 14.3171C12.4588 14.2794 12.6386 14.1879 12.7334 14.1397L12.7599 14.1263L16.0996 12.4564V14.2002L12.5 16C12.5 16 12.336 16.1 12 16.1C11.6641 16.1 11.5 16 11.5 16L3.1 11.8V16.9999L3.09983 17.0773C3.09886 17.3661 3.09771 17.7069 3.21023 18.0227C3.30769 18.2962 3.46651 18.5437 3.67452 18.7462C3.91469 18.9801 4.22506 19.1211 4.48799 19.2405L4.55836 19.2726L10.9584 22.2059L11.0088 22.2291C11.2005 22.3176 11.4275 22.4223 11.675 22.4653C11.8901 22.5026 12.1099 22.5026 12.325 22.4653C12.5726 22.4223 12.7994 22.3176 12.9913 22.2291L13.0416 22.2059L19.4416 19.2726L19.512 19.2405C19.7749 19.1211 20.0853 18.9801 20.3255 18.7462C20.5335 18.5437 20.6923 18.2962 20.7898 18.0227C20.9023 17.7069 20.9011 17.3661 20.9002 17.0773L20.9 16.9999V11.8L17.8996 13.3002V11.5564Z"
    fill="#899199" class="svg-color"></path>
</svg>