<svg width="24" height="24" viewBox="0 0 24 24" fill="none" xmlns="http://www.w3.org/2000/svg">
  <path
    d="M16 10C16 12.2091 14.2091 14 12 14C9.79086 14 8 12.2091 8 10C8 7.79086 9.79086 6 12 6C14.2091 6 16 7.79086 16 10Z"
    fill="#899199" class="svg-color"></path>
  <path d="M7.5 21L5.5 19.5L6 18L8 17H15L18 18L18.5 19.5L17 21L14 22H11.2812L7.5 21Z" fill="#899199"
    class="svg-color"></path>
  <path
    d="M21.2002 12C21.2002 6.91898 17.081 2.7998 12 2.7998C6.91898 2.7998 2.7998 6.91898 2.7998 12C2.7998 14.3589 3.68882 16.5094 5.14844 18.1377C6.02284 16.9629 7.42126 16.2002 9 16.2002H15C16.5785 16.2002 17.9762 16.9632 18.8506 18.1377C20.3105 16.5093 21.2002 14.3591 21.2002 12ZM9 17.7998C7.88369 17.7998 6.90105 18.3727 6.32812 19.2412C7.89113 20.4672 9.85949 21.2002 12 21.2002C14.1402 21.2002 16.108 20.4669 17.6709 19.2412C17.0979 18.3729 16.1161 17.7998 15 17.7998H9ZM15.2002 9.5C15.2002 7.73269 13.7673 6.2998 12 6.2998C10.2327 6.2998 8.7998 7.73269 8.7998 9.5C8.7998 11.2673 10.2327 12.7002 12 12.7002C13.7673 12.7002 15.2002 11.2673 15.2002 9.5ZM22.7998 12C22.7998 15.1789 21.426 18.0364 19.2402 20.0127C19.2212 20.0311 19.2007 20.0479 19.1797 20.0645C17.2712 21.7648 14.7572 22.7998 12 22.7998C9.24258 22.7998 6.7279 21.7651 4.81934 20.0645C4.79858 20.048 4.77858 20.0309 4.75977 20.0127C2.57395 18.0364 1.2002 15.1789 1.2002 12C1.2002 6.03532 6.03532 1.2002 12 1.2002C17.9647 1.2002 22.7998 6.03532 22.7998 12ZM16.7998 9.5C16.7998 12.151 14.651 14.2998 12 14.2998C9.34903 14.2998 7.2002 12.151 7.2002 9.5C7.2002 6.84903 9.34903 4.7002 12 4.7002C14.651 4.7002 16.7998 6.84903 16.7998 9.5Z"
    fill="#899199" class="svg-color"></path>
</svg>