<svg width="100" height="100" viewBox="0 0 100 100" fill="none" xmlns="http://www.w3.org/2000/svg">
<path d="M0 8C0 3.58172 3.58172 0 8 0H92C96.4183 0 100 3.58172 100 8V92C100 96.4183 96.4183 100 92 100H8C3.58172 100 0 96.4183 0 92V8Z" fill="#F5F5F5"/>
<path d="M30.9285 25.3301H67.9285C69.3644 25.3301 70.5281 26.4937 70.5281 27.9297V71.9297C70.5281 73.3656 69.3644 74.5293 67.9285 74.5293H30.9285C29.4925 74.5293 28.3289 73.3656 28.3289 71.9297V27.9297C28.3289 26.4937 29.4925 25.3301 30.9285 25.3301Z" fill="white" stroke="#161819" stroke-width="0.8"/>
<path d="M35.1426 38.8574H56.8569" stroke="#161819" stroke-width="0.9" stroke-linecap="round" stroke-linejoin="round"/>
<path d="M35.1426 63H56.8569" stroke="#161819" stroke-width="0.9" stroke-linecap="round" stroke-linejoin="round"/>
<path d="M35.1426 43.4277H46.5712" stroke="#161819" stroke-width="0.9" stroke-linecap="round" stroke-linejoin="round"/>
<path d="M35.1426 58H46.5712" stroke="#161819" stroke-width="0.9" stroke-linecap="round" stroke-linejoin="round"/>
<path d="M36 48.3496L53 48.3496C53.359 48.3496 53.6504 48.641 53.6504 49L53.6504 52C53.6504 52.359 53.359 52.6504 53 52.6504L36 52.6504C35.641 52.6504 35.3496 52.359 35.3496 52L35.3496 49C35.3496 48.641 35.641 48.3496 36 48.3496Z" fill="#E5F1FF" stroke="#161819" stroke-width="0.7"/>
<path d="M41 23.4004H58C58.3314 23.4004 58.5996 23.6686 58.5996 24V28C58.5996 28.3314 58.3314 28.5996 58 28.5996H41C40.6686 28.5996 40.4004 28.3314 40.4004 28V24C40.4004 23.6686 40.6686 23.4004 41 23.4004Z" fill="#1181F9" stroke="#161819" stroke-width="0.8"/>
</svg>
