<svg width="40" height="40" viewBox="0 0 40 40" fill="none" xmlns="http://www.w3.org/2000/svg">
<rect width="40" height="40" rx="10" fill="#76C360"/>
<path d="M0 16C0 10.3995 0 7.59921 1.08993 5.46009C2.04867 3.57847 3.57847 2.04867 5.46009 1.08993C7.59921 0 10.3995 0 16 0H24C29.6005 0 32.4008 0 34.5399 1.08993C36.4215 2.04867 37.9513 3.57847 38.9101 5.46009C40 7.59921 40 10.3995 40 16V24C40 29.6005 40 32.4008 38.9101 34.5399C37.9513 36.4215 36.4215 37.9513 34.5399 38.9101C32.4008 40 29.6005 40 24 40H16C10.3995 40 7.59921 40 5.46009 38.9101C3.57847 37.9513 2.04867 36.4215 1.08993 34.5399C0 32.4008 0 29.6005 0 24V16Z" fill="#62C446"/>
<path fill-rule="evenodd" clip-rule="evenodd" d="M13.8029 11.9979C14.258 11.9607 14.8451 11.96 15.7 11.96H18.4C18.8971 11.96 19.3 11.5571 19.3 11.06C19.3 10.563 18.8971 10.16 18.4 10.16L15.6623 10.16C14.8542 10.16 14.1934 10.16 13.6563 10.2039C13.1004 10.2493 12.5983 10.3462 12.1294 10.5851C11.3956 10.959 10.799 11.5556 10.4251 12.2895C10.1862 12.7584 10.0893 13.2604 10.0439 13.8164C9.99998 14.3534 9.99999 15.0143 10 15.8223V25.2977C9.99999 26.1058 9.99998 26.7666 10.0439 27.3037C10.0893 27.8596 10.1862 28.3617 10.4251 28.8306C10.799 29.5644 11.3956 30.1611 12.1294 30.535C12.5983 30.7739 13.1004 30.8708 13.6563 30.9162C14.1934 30.9601 14.8542 30.9601 15.6623 30.96H23.1377C23.9458 30.9601 24.6066 30.9601 25.1437 30.9162C25.6996 30.8708 26.2017 30.7739 26.6706 30.535C27.4044 30.1611 28.001 29.5644 28.3749 28.8306C28.6138 28.3617 28.7107 27.8596 28.7561 27.3037C28.8 26.7666 28.8 23.1058 28.8 22.2977V21.56C28.8 21.063 28.3971 20.66 27.9 20.66C27.4029 20.66 27 21.063 27 21.56V22.26C27 23.115 26.9993 26.702 26.9621 27.1571C26.9258 27.6017 26.8592 27.8406 26.7711 28.0134C26.5698 28.4086 26.2485 28.7298 25.8534 28.9312C25.6805 29.0192 25.4417 29.0858 24.9971 29.1222C24.542 29.1593 23.9549 29.16 23.1 29.16H15.7C14.8451 29.16 14.258 29.1593 13.8029 29.1222C13.3583 29.0858 13.1195 29.0192 12.9466 28.9312C12.5515 28.7298 12.2302 28.4086 12.0289 28.0134C11.9408 27.8406 11.8742 27.6017 11.8379 27.1571C11.8007 26.702 11.8 26.115 11.8 25.26V15.86C11.8 15.0051 11.8007 14.418 11.8379 13.9629C11.8742 13.5183 11.9408 13.2795 12.0289 13.1067C12.2302 12.7115 12.5515 12.3903 12.9466 12.1889C13.1195 12.1009 13.3583 12.0342 13.8029 11.9979Z" fill="white"/>
<path fill-rule="evenodd" clip-rule="evenodd" d="M24.7636 9.92496C25.9435 8.74506 27.8565 8.74507 29.0364 9.92496C30.2163 11.1049 30.2163 13.0179 29.0364 14.1978L20.4737 22.7605C20.4548 22.7794 20.4361 22.7981 20.4175 22.8167C20.127 23.1077 19.8818 23.3533 19.5868 23.534C19.3274 23.693 19.0445 23.8102 18.7486 23.8812C18.4122 23.962 18.0652 23.9617 17.654 23.9614C17.6278 23.9614 17.6013 23.9614 17.5745 23.9614H15.9C15.4029 23.9614 15 23.5584 15 23.0614V21.3868C15 21.3601 15 21.3336 15 21.3074C14.9996 20.8962 14.9994 20.5492 15.0801 20.2128C15.1512 19.9169 15.2683 19.634 15.4273 19.3745C15.6081 19.0796 15.8537 18.8344 16.1447 18.5438C16.1632 18.5253 16.182 18.5066 16.2009 18.4877L24.7636 9.92496ZM27.7636 11.1978C27.2867 10.7208 26.5134 10.7208 26.0364 11.1978L17.4737 19.7605C17.0975 20.1367 17.0172 20.2252 16.9621 20.315C16.9018 20.4135 16.8573 20.5208 16.8304 20.633C16.8058 20.7355 16.8 20.8548 16.8 21.3868V22.1614H17.5745C18.1066 22.1614 18.2259 22.1556 18.3284 22.131C18.4406 22.104 18.5479 22.0596 18.6463 21.9993C18.7362 21.9442 18.8247 21.8639 19.2009 21.4877L27.7636 12.925C28.2406 12.448 28.2406 11.6747 27.7636 11.1978Z" fill="white"/>
</svg>
