<svg width="24" height="24" viewBox="0 0 24 24" fill="none" xmlns="http://www.w3.org/2000/svg">
  <path fill-rule="evenodd" clip-rule="evenodd"
    d="M11.9996 1.1001C12.4967 1.1001 12.8996 1.50304 12.8996 2.0001V3.1001L18.835 3.1001C19.3649 3.10008 19.8161 3.10007 20.1865 3.13034C20.5757 3.16213 20.9543 3.23176 21.3162 3.41618C21.8619 3.69421 22.3055 4.13786 22.5835 4.68353C22.7679 5.04546 22.8376 5.42405 22.8694 5.81321C22.8996 6.18364 22.8996 6.63482 22.8996 7.16469V13.8355C22.8996 14.3654 22.8996 14.8166 22.8694 15.187C22.8376 15.5761 22.7679 15.9547 22.5835 16.3167C22.3055 16.8623 21.8619 17.306 21.3162 17.584C20.9543 17.7684 20.5757 17.8381 20.1865 17.8699C19.8161 17.9001 19.3649 17.9001 18.835 17.9001H17.1724L20.636 21.3637C20.9875 21.7152 20.9875 22.285 20.636 22.6365C20.2845 22.988 19.7147 22.988 19.3632 22.6365L14.6268 17.9001H12.8996V22.0001C12.8996 22.4972 12.4967 22.9001 11.9996 22.9001C11.5026 22.9001 11.0996 22.4972 11.0996 22.0001V17.9001H9.3724L4.63601 22.6365C4.28453 22.988 3.71469 22.988 3.36321 22.6365C3.01174 22.285 3.01174 21.7152 3.36321 21.3637L6.82682 17.9001H5.16421C4.63434 17.9001 4.18316 17.9001 3.81273 17.8699C3.42356 17.8381 3.04497 17.7684 2.68304 17.584C2.13737 17.306 1.69372 16.8623 1.41569 16.3167C1.23128 15.9547 1.16164 15.5761 1.12985 15.187C1.09958 14.8166 1.0996 14.3654 1.09961 13.8355V7.16469C1.0996 6.63483 1.09958 6.18364 1.12985 5.81321C1.16164 5.42405 1.23128 5.04546 1.41569 4.68353C1.69372 4.13786 2.13737 3.69421 2.68304 3.41618C3.04497 3.23176 3.42356 3.16213 3.81273 3.13034C4.18316 3.10007 4.63434 3.10008 5.16421 3.1001L11.0996 3.1001V2.0001C11.0996 1.50304 11.5026 1.1001 11.9996 1.1001ZM5.19961 4.9001C4.62471 4.9001 4.24766 4.9008 3.9593 4.92436C3.68146 4.94706 3.56611 4.98642 3.50022 5.01999C3.29324 5.12545 3.12496 5.29373 3.0195 5.50071C2.98593 5.5666 2.94657 5.68194 2.92387 5.95979C2.90031 6.24814 2.89961 6.62519 2.89961 7.2001V13.8001C2.89961 14.375 2.90031 14.7521 2.92387 15.0404C2.94657 15.3183 2.98593 15.4336 3.0195 15.4995C3.12496 15.7065 3.29324 15.8747 3.50022 15.9802C3.56611 16.0138 3.68146 16.0531 3.9593 16.0758C4.24766 16.0994 4.62471 16.1001 5.19961 16.1001H8.99847C8.99923 16.1001 8.99999 16.1001 9.00075 16.1001H14.9985C14.9992 16.1001 15 16.1001 15.0007 16.1001H18.7996C19.3745 16.1001 19.7516 16.0994 20.0399 16.0758C20.3178 16.0531 20.4331 16.0138 20.499 15.9802C20.706 15.8747 20.8743 15.7065 20.9797 15.4995C21.0133 15.4336 21.0527 15.3183 21.0754 15.0404C21.0989 14.7521 21.0996 14.375 21.0996 13.8001V7.2001C21.0996 6.62519 21.0989 6.24814 21.0754 5.95979C21.0527 5.68194 21.0133 5.5666 20.9797 5.50071C20.8743 5.29373 20.706 5.12545 20.499 5.01999C20.4331 4.98642 20.3178 4.94706 20.0399 4.92436C19.7516 4.9008 19.3745 4.9001 18.7996 4.9001H5.19961Z"
    fill="#899199" class="svg-color"></path>
</svg>