<svg width="144" height="34" viewBox="0 0 144 34" fill="none" xmlns="http://www.w3.org/2000/svg">
<g clip-path="url(#clip0_8425_92756)">
<path d="M43.3972 18.7714C43.3972 18.7714 44.4998 13.8663 39.7058 13.6744C39.7058 13.6744 37.6085 13.4226 36.0504 13.6744C35.1156 13.8303 34.1208 14.1901 33.4616 15.7972C32.8384 17.3083 32.5508 18.7714 32.5508 18.7714H43.3852H43.3972Z" fill="#00B9F2"/>
<path d="M17.1622 28.444C13.399 28.444 8.7248 25.6017 10.0671 19.4613C10.6304 16.8828 11.9967 14.6281 13.7585 12.5533C20.7458 4.31419 31.9158 0.992144 31.76 4.23024C31.7001 5.42953 30.7413 6.96463 31.9158 7.92407C33.39 9.12336 37.8244 7.50431 38.2918 4.11031C38.6394 1.60378 35.0798 -0.363059 27.8769 0.0566943C17.1982 0.680327 4.38622 7.50431 0.886595 17.7823C-2.33737 27.2327 3.66712 34.0087 12.7518 34.0087C22.5795 34.0087 28.4641 28.0602 30.3458 22.0637L30.981 19.989H19.5113C19.5113 19.989 18.5046 25.086 23.2027 25.086C24.1735 25.086 24.7967 24.954 25.6117 24.5703C25.7076 24.5223 25.7315 24.5943 25.6836 24.6422C24.2694 26.3932 21.1053 28.444 17.1622 28.444Z" fill="white"/>
<path d="M33.9042 9.45688C33.9042 9.45688 29.0143 8.17363 27.3125 13.2586C27.3125 13.2586 26.9529 14.41 26.6533 16.065C26.1259 18.8354 31.2555 18.7754 31.2555 18.7754L33.9162 9.45688H33.9042Z" fill="#FCAF16"/>
<path d="M29.2793 29.7978C29.2793 29.7978 34.1692 31.081 35.8711 25.996C35.8711 25.996 36.4463 24.377 36.7579 22.7339C37.2853 19.9636 32.1557 20.0235 32.1557 20.0235L29.2793 29.7978Z" fill="#80C341"/>
<path d="M142.659 5.64844H114.051V6.11616H142.659V5.64844Z" fill="white"/>
<path d="M53.4166 8.06637C52.338 8.06637 51.6309 7.05896 51.6309 5.51187C51.6309 3.96478 52.338 2.95738 53.4166 2.95738C54.4953 2.95738 55.2024 3.96478 55.2024 5.51187C55.2024 7.05896 54.5192 8.06637 53.4166 8.06637ZM53.4166 3.64097C52.7574 3.64097 52.3619 4.51646 52.3619 5.49988C52.3619 6.4833 52.7574 7.37078 53.4166 7.37078C54.0758 7.37078 54.4593 6.51928 54.4593 5.49988C54.4593 4.48048 54.0878 3.64097 53.4166 3.64097ZM57.096 2.42969V5.28401H58.0788V5.9796H57.096V9.34962H56.353V2.42969H57.096Z" fill="white"/>
<path d="M58.7012 6.60357V5.95595H65.2809V6.60357H58.7012ZM59.5521 5.48823V3.74925H63.5671V3.18558H59.5521V2.58594H64.3581V4.32491H60.3311V4.87659H64.4899V5.48823H59.5521ZM59.5521 9.278V7.0713H64.43V9.278H59.5521ZM63.663 7.69493H60.3192V8.64237H63.663V7.69493Z" fill="white"/>
<path d="M67.6908 7.77854H66.0488V3.22122H69.2608V3.89283H66.7919V7.11893H67.9784C68.6496 7.09494 69.6923 6.97501 69.884 6.93903V7.58665C69.6923 7.62263 68.6975 7.76655 67.6788 7.77854H67.6908ZM71.1664 2.42969V5.20006H72.1612V5.89565H71.1664V9.36161H70.4234V2.42969H71.1664Z" fill="white"/>
<path d="M76.0437 6.58034V7.97152H75.2887V6.58034H72.3164V5.92073H78.8962V6.58034H76.0557H76.0437ZM75.6003 5.2851C73.9584 5.2851 73.0954 4.67346 73.0954 3.83396C73.0954 2.99445 73.9584 2.38281 75.6003 2.38281C77.2422 2.38281 78.1172 2.99445 78.1172 3.82197C78.1172 4.64948 77.2662 5.2851 75.6003 5.2851ZM73.1554 9.2068V7.23995H73.8984V8.54719H78.225V9.2068H73.1434H73.1554ZM75.6003 4.66147C76.643 4.66147 77.3142 4.30168 77.3142 3.83396C77.3142 3.36623 76.655 2.99445 75.6003 2.99445C74.5456 2.99445 73.8984 3.33026 73.8984 3.80997C73.8984 4.28969 74.5576 4.64948 75.6003 4.64948V4.66147Z" fill="white"/>
<path d="M84.0991 6.19547C83.0444 6.19547 82.2773 5.40394 82.2773 4.43251C82.2773 3.46108 83.0324 2.65755 84.0991 2.65755C85.1657 2.65755 85.9208 3.44909 85.9208 4.43251C85.9208 5.41593 85.1537 6.19547 84.0991 6.19547ZM84.0991 3.34115C83.4399 3.34115 83.0564 3.83286 83.0564 4.43251C83.0564 5.03216 83.4399 5.51187 84.0991 5.51187C84.7582 5.51187 85.1538 5.02016 85.1538 4.43251C85.1538 3.84485 84.7822 3.34115 84.0991 3.34115ZM83.3081 9.2057V7.01099H84.0751V8.54609H88.1979V9.2057H83.32H83.3081ZM87.2871 7.44274V2.42969H88.0301V7.44274H87.2871Z" fill="white"/>
<path d="M89.3849 3.91681V3.24521H92.453V3.91681H91.3144V4.16866C91.3144 5.33198 91.6261 6.62722 92.7766 7.55067L92.2493 8.04238C91.7938 7.70658 91.0987 6.77113 90.9309 6.12351C90.7511 6.8191 90.1279 7.69459 89.5526 8.22228L88.9414 7.75455C90.2837 6.67519 90.5354 5.35597 90.5354 4.16866V3.91681H89.3849ZM94.5384 9.36161V5.87166H93.7714V9.04979H93.0403V2.5856H93.7714V5.10411H94.5384V2.42969H95.2695V9.36161H94.5384Z" fill="white"/>
<path d="M97.9423 7.94644H96.1445V7.28683H98.0022C99.1528 7.26284 100.339 7.19089 100.986 7.11893V7.79053C100.519 7.8385 98.961 7.92246 97.9423 7.93445V7.94644ZM100.231 4.56443C100.231 5.51187 99.4404 6.30341 98.3618 6.30341C97.2831 6.30341 96.5041 5.51187 96.5041 4.56443C96.5041 3.61699 97.2831 2.82545 98.3618 2.82545C99.4404 2.82545 100.231 3.61699 100.231 4.56443ZM98.3618 3.50905C97.6786 3.50905 97.2711 4.00076 97.2711 4.57642C97.2711 5.15209 97.6786 5.6438 98.3618 5.6438C99.0449 5.6438 99.4644 5.15209 99.4644 4.57642C99.4644 4.00076 99.0569 3.50905 98.3618 3.50905ZM101.25 9.36161V2.42969H101.993V9.36161H101.25Z" fill="white"/>
<path d="M108.535 6.18348C108.056 5.96761 107.445 5.31999 107.157 4.75632C107.025 5.26002 106.402 5.95561 105.779 6.38736L105.191 5.89565C106.558 5.05614 106.761 3.85685 106.761 3.20923V2.62157H107.54V3.20923C107.54 3.85685 107.792 5.00817 109.003 5.6318L108.535 6.19547V6.18348ZM106.702 9.27766V6.75914H111.436V9.27766H106.702ZM110.705 7.41875H107.457V8.61805H110.705V7.41875ZM110.74 6.41134V4.75632H109.961V6.41134H109.242V2.54962H109.961V4.06073H110.74V2.42969H111.46V6.41134H110.74Z" fill="white"/>
<path d="M65.8925 20.3659V14.2135C65.8925 14.0216 65.8686 13.9017 65.8086 13.8417C65.7607 13.7817 65.6648 13.7218 65.4491 13.6978L61.9495 13.326C61.7337 13.302 61.5779 13.35 61.518 13.5419C61.4701 13.7098 61.542 13.8537 61.7697 13.9736L62.2491 14.2255C62.8124 14.5253 63.0641 14.7772 63.0641 15.4248V31.9391H64.4424C64.9697 31.9391 65.3292 31.7832 65.5929 31.4713C65.8566 31.1595 65.9045 30.7757 65.9045 30.2241V21.841H68.4094C68.5293 21.841 68.6371 21.841 68.697 21.769C68.7689 21.6971 68.7809 21.6011 68.7809 21.4812V20.3899H65.9045L65.8925 20.3659Z" fill="white"/>
<path d="M60.3439 15.6635H52.9611C52.0143 15.6635 51.7027 15.5916 51.1154 15.3397C50.8637 15.2318 50.6839 15.3157 50.624 15.4117C50.5641 15.5076 50.5761 15.6755 50.6959 15.8434C50.8517 16.0473 51.3671 16.6949 51.475 16.8268C51.6907 17.0907 51.8585 17.1266 52.3019 17.1266H57.2397C56.6165 20.1249 54.2675 24.1065 49.9648 27.3207L50.9476 27.9923C51.1514 28.1362 51.3671 28.1362 51.6308 27.9923C56.245 25.03 59.8045 20.6646 60.6795 16.0233C60.7034 15.9034 60.6795 15.7954 60.6315 15.7355C60.5716 15.6635 60.4757 15.6515 60.3439 15.6515V15.6635Z" fill="white"/>
<path d="M123.483 18.3594V14.2099C123.483 14.018 123.459 13.898 123.399 13.8261C123.351 13.7541 123.255 13.7062 123.039 13.6822L119.575 13.3104C119.36 13.2864 119.204 13.3344 119.144 13.5263C119.096 13.6942 119.18 13.8381 119.396 13.958L119.875 14.2099C120.438 14.5097 120.69 14.7615 120.69 15.4092V24.212H122.032C122.56 24.212 122.919 24.0561 123.183 23.7323C123.435 23.4204 123.494 23.0367 123.494 22.485V19.7986H126.035C126.155 19.7986 126.263 19.7986 126.323 19.7146C126.383 19.6427 126.395 19.5467 126.395 19.4268V18.3354H123.483V18.3594Z" fill="white"/>
<path d="M123.111 25.0854H112.828C111.881 25.0854 111.569 25.0134 110.982 24.7616C110.73 24.6536 110.55 24.7376 110.479 24.8335C110.419 24.9295 110.431 25.0974 110.55 25.2653C110.706 25.4812 111.222 26.1168 111.329 26.2487C111.545 26.5125 111.713 26.5485 112.156 26.5485H120.666V31.9693H122.008C122.535 31.9693 122.895 31.8134 123.159 31.4896C123.41 31.1778 123.47 30.794 123.47 30.2423V25.4572C123.47 25.3372 123.458 25.2293 123.386 25.1693C123.326 25.1094 123.219 25.0974 123.099 25.0974L123.111 25.0854Z" fill="white"/>
<path d="M118.099 19.6903C118.099 18.7309 117.692 17.8554 117.021 17.1718H119.022C119.142 17.1718 119.25 17.1718 119.31 17.0998C119.37 17.0279 119.382 16.9319 119.382 16.812V15.7206H114.815V13.9816C114.815 13.7898 114.791 13.6698 114.731 13.6099C114.684 13.5499 114.588 13.4899 114.372 13.466L111.376 13.1541C111.16 13.1302 111.004 13.1781 110.944 13.37C110.896 13.5379 110.968 13.6818 111.184 13.8018L111.244 13.8257C111.807 14.1256 112.059 14.3654 112.059 15.025V15.7326H109.027C108.08 15.7326 107.768 15.6607 107.181 15.4088C106.929 15.3009 106.749 15.3848 106.689 15.4808C106.63 15.5767 106.642 15.7446 106.761 15.9125C106.917 16.1164 107.433 16.764 107.54 16.8959C107.756 17.1598 107.924 17.1958 108.367 17.1958H109.722C109.051 17.8794 108.643 18.7668 108.643 19.7143C108.643 21.909 110.609 23.6839 113.353 23.6839C116.098 23.6839 118.063 21.909 118.063 19.7143L118.099 19.6903ZM112.155 21.5132C111.807 21.0215 111.639 20.4219 111.639 19.7263C111.639 19.0307 111.807 18.443 112.143 17.9513C112.478 17.4476 112.898 17.2078 113.389 17.2078C113.881 17.2078 114.3 17.4596 114.636 17.9513C114.971 18.443 115.127 19.0427 115.127 19.7383C115.127 20.4339 114.959 21.0335 114.636 21.5252C114.312 22.0169 113.904 22.2688 113.401 22.2688C112.898 22.2688 112.478 22.0169 112.143 21.5252L112.155 21.5132Z" fill="white"/>
<path d="M137.624 28.7483V22.3561C137.624 22.1642 137.6 22.0443 137.54 21.9843C137.493 21.9244 137.397 21.8644 137.181 21.8404L134.436 21.5526C134.209 21.5286 134.065 21.5766 134.005 21.7684C133.957 21.9363 134.041 22.0803 134.257 22.2002L134.316 22.2242C134.88 22.524 135.131 22.7639 135.131 23.4235V28.7603H133.034V22.6919C133.034 22.5 133.01 22.3801 132.95 22.3201C132.902 22.2602 132.806 22.2002 132.591 22.1762L129.846 21.8884C129.63 21.8644 129.475 21.9124 129.415 22.1043C129.367 22.2722 129.439 22.4161 129.666 22.536L129.726 22.56C130.29 22.8598 130.541 23.1117 130.541 23.7593V28.7723H128.048C127.101 28.7723 126.79 28.7004 126.203 28.4485C125.951 28.3406 125.771 28.4245 125.699 28.5205C125.639 28.6164 125.651 28.7843 125.771 28.9522C125.927 29.1561 126.442 29.8037 126.55 29.9356C126.766 30.1995 126.934 30.2355 127.377 30.2355H143.665C143.785 30.2355 143.881 30.2355 143.952 30.1515C144.024 30.0676 144.024 29.9836 144.024 29.8637V28.7723H137.636L137.624 28.7483Z" fill="white"/>
<path d="M128.562 16.3695C128.778 16.6334 128.945 16.6693 129.389 16.6693H139.564C139.564 19.4037 139.265 23.0256 138.725 25.4362H140.175C140.427 25.4362 140.535 25.3762 140.667 25.1364C141.889 22.6658 142.62 18.6482 142.62 15.7819V15.59C142.62 15.47 142.62 15.3621 142.536 15.3021C142.465 15.2302 142.369 15.2182 142.249 15.2182H130.048C129.101 15.2182 128.79 15.1462 128.202 14.8944C127.951 14.7865 127.771 14.8704 127.711 14.9663C127.651 15.0623 127.663 15.2302 127.783 15.3981C127.939 15.602 128.454 16.2496 128.562 16.3815V16.3695Z" fill="white"/>
<path d="M104.99 13.7578C104.942 13.6978 104.846 13.6378 104.63 13.6138L101.67 13.326C101.454 13.302 101.298 13.35 101.238 13.5419C101.191 13.7098 101.274 13.8537 101.49 13.9736L101.694 14.0696C102.245 14.3694 102.509 14.6093 102.509 15.2689V20.222H101.083V14.5013C101.083 14.3094 101.059 14.1895 100.999 14.1175C100.951 14.0576 100.855 13.9976 100.639 13.9736L97.6429 13.6618C97.4272 13.6378 97.2714 13.6858 97.2115 13.8777C97.1635 14.0456 97.2355 14.1895 97.4632 14.3094L97.7029 14.4294C98.2662 14.7292 98.5178 14.981 98.5178 15.6287V23.9638C97.7868 24.2756 96.7321 24.4555 95.2459 24.5994C93.4961 24.7673 93.0287 24.8033 92.8729 24.6953C92.7171 24.5994 92.7171 24.4315 92.7171 24.2396V16.9839H96.4564C96.5763 16.9839 96.6841 16.9839 96.7441 16.9119C96.816 16.8399 96.828 16.744 96.828 16.6241V15.5327H89.1815C88.9538 15.5327 88.7501 15.5927 88.7021 15.7846C88.6662 15.9765 88.774 16.1084 88.9898 16.2163L89.1576 16.3003C89.7208 16.6001 89.9725 16.8399 89.9725 17.4996V24.9832C89.9725 25.4629 90.0444 25.9186 90.4399 26.2544C90.8474 26.5902 91.8182 26.6022 94.4549 26.1705C96.7441 25.7987 97.7149 25.4988 98.5298 25.0671V31.7472H99.6444C100.172 31.7472 100.531 31.5913 100.795 31.2794C101.047 30.9676 101.107 30.5839 101.107 30.0322V21.7091H102.533V31.963H103.647C104.175 31.963 104.534 31.8071 104.786 31.4953C105.05 31.1835 105.098 30.7997 105.098 30.2481V14.1775C105.098 13.9856 105.074 13.8657 105.014 13.8057L104.99 13.7578Z" fill="white"/>
<path d="M80.9591 18.7672C80.0123 18.7672 79.6407 18.7192 79.1613 18.4913C78.9097 18.3834 78.7299 18.4674 78.67 18.5633C78.61 18.6592 78.622 18.8271 78.7419 18.995C78.8977 19.2109 79.3651 19.7866 79.473 19.9185C79.6887 20.1823 79.8565 20.2183 80.2999 20.2183H83.1643V26.7065H84.3509C84.8782 26.7065 85.2377 26.5506 85.5014 26.2268C85.7531 25.915 85.813 25.5312 85.813 24.9795V14.1859C85.813 13.994 85.7891 13.8741 85.7291 13.8021C85.6812 13.7421 85.5853 13.6822 85.3696 13.6582L82.0497 13.3104C81.822 13.2864 81.6782 13.3344 81.6183 13.5263C81.5703 13.6942 81.6542 13.8381 81.87 13.958L82.3494 14.2099C82.9127 14.5097 83.1643 14.7495 83.1643 15.4092V18.7672H80.9591Z" fill="white"/>
<path d="M77.5917 29.8511C77.364 29.8392 77.2801 29.7792 77.2322 29.7072C77.1722 29.6473 77.1483 29.5273 77.1483 29.3355V25.9295C77.1483 25.7376 77.1243 25.6176 77.0644 25.5577C77.0044 25.4977 76.9205 25.4377 76.7048 25.4258L73.2531 25.1619C73.0254 25.1379 72.8816 25.1859 72.8217 25.3898C72.7737 25.5577 72.8576 25.7016 73.0734 25.8095L73.5528 26.0494C74.1161 26.3372 74.3677 26.5771 74.3677 27.2247V29.3594C74.3677 29.9951 74.4396 30.4268 74.7273 30.7866C75.0149 31.1464 75.4344 31.3263 76.0337 31.3263H85.9812C86.1011 31.3263 86.2089 31.3263 86.2689 31.2543C86.3408 31.1944 86.3408 31.0864 86.3408 30.9665V29.8751H77.5917V29.8511Z" fill="white"/>
<path d="M75.4095 20.8174C76.2604 21.9328 77.4589 23.252 78.5616 24.1635C78.7893 24.3793 79.005 24.4033 79.2687 24.2114C79.844 23.7797 80.5391 23.168 81.1024 22.4964C79.3765 21.6929 77.8425 20.6735 76.4282 19.2583C76.7518 18.6107 76.9795 17.9271 77.1353 17.2555H80.1556C80.2754 17.2555 80.3833 17.2555 80.4432 17.1836C80.5151 17.1116 80.5151 17.0157 80.5151 16.8957V15.8044H77.3031C77.3631 15.2647 77.399 14.6291 77.399 14.1733C77.399 13.9575 77.375 13.8615 77.3151 13.8015C77.2672 13.7416 77.1713 13.6816 76.9556 13.6576L73.5638 13.3338C73.3481 13.3098 73.1923 13.3578 73.1323 13.5497C73.0844 13.7176 73.1563 13.8615 73.3721 13.9814C73.9353 14.2813 74.187 14.5931 74.187 15.1807V15.8164H72.0777C71.1309 15.8164 70.8192 15.7444 70.232 15.4926C69.9803 15.3846 69.8005 15.4686 69.7406 15.5645C69.6807 15.6605 69.6926 15.8284 69.8125 15.9963C69.9683 16.2001 70.4837 16.8478 70.5915 16.9797C70.8073 17.2435 70.975 17.2795 71.4185 17.2795H74.1631C73.9953 19.5342 72.581 21.6569 69.5488 23.9596L70.3758 24.5952C70.6155 24.7391 70.8073 24.7751 71.0589 24.5952C72.641 23.5038 74.223 22.2566 75.3855 20.8414L75.4095 20.8174Z" fill="white"/>
</g>
<defs>
<clipPath id="clip0_8425_92756">
<rect width="144" height="33.9775" fill="white" transform="translate(0 0.0078125)"/>
</clipPath>
</defs>
</svg>
